<svg width="156" height="60" viewBox="0 0 156 60" fill="none" xmlns="http://www.w3.org/2000/svg">
<circle cx="30" cy="30" r="30" fill="#FF9900"/>
<path d="M19.4128 40.6534L40.626 19.4402M40.626 19.4402L40.6577 28.8861M40.626 19.4402L31.1801 19.4086" stroke="white" stroke-width="1.525" stroke-linecap="round" stroke-linejoin="round"/>
<path d="M26.2487 40.8885L35.4411 31.6962" stroke="white" stroke-width="1.525" stroke-linecap="round" stroke-linejoin="round"/>
<path d="M19.1778 33.8174L28.3298 24.5848" stroke="white" stroke-width="1.525" stroke-linecap="round" stroke-linejoin="round"/>
<path d="M18.4318 27.4147L21.9673 23.8791" stroke="white" stroke-width="1.525" stroke-linecap="round" stroke-linejoin="round"/>
<path d="M32.6128 41.5957L36.1483 38.0602" stroke="white" stroke-width="1.525" stroke-linecap="round" stroke-linejoin="round"/>
<path d="M70.86 30.02C70.86 28.66 71.1667 27.44 71.78 26.36C72.3933 25.2667 73.2267 24.4133 74.28 23.8C75.3467 23.1867 76.5267 22.88 77.82 22.88C79.34 22.88 80.6667 23.2467 81.8 23.98C82.9333 24.7133 83.76 25.7533 84.28 27.1H82.1C81.7133 26.26 81.1533 25.6133 80.42 25.16C79.7 24.7067 78.8333 24.48 77.82 24.48C76.8467 24.48 75.9733 24.7067 75.2 25.16C74.4267 25.6133 73.82 26.26 73.38 27.1C72.94 27.9267 72.72 28.9 72.72 30.02C72.72 31.1267 72.94 32.1 73.38 32.94C73.82 33.7667 74.4267 34.4067 75.2 34.86C75.9733 35.3133 76.8467 35.54 77.82 35.54C78.8333 35.54 79.7 35.32 80.42 34.88C81.1533 34.4267 81.7133 33.78 82.1 32.94H84.28C83.76 34.2733 82.9333 35.3067 81.8 36.04C80.6667 36.76 79.34 37.12 77.82 37.12C76.5267 37.12 75.3467 36.82 74.28 36.22C73.2267 35.6067 72.3933 34.76 71.78 33.68C71.1667 32.6 70.86 31.38 70.86 30.02ZM88.8092 27.82C89.1292 27.1933 89.5826 26.7067 90.1692 26.36C90.7692 26.0133 91.4959 25.84 92.3492 25.84V27.72H91.8692C89.8292 27.72 88.8092 28.8267 88.8092 31.04V37H86.9892V26.04H88.8092V27.82ZM95.3902 24.26C95.0435 24.26 94.7502 24.14 94.5102 23.9C94.2702 23.66 94.1502 23.3667 94.1502 23.02C94.1502 22.6733 94.2702 22.38 94.5102 22.14C94.7502 21.9 95.0435 21.78 95.3902 21.78C95.7235 21.78 96.0035 21.9 96.2302 22.14C96.4702 22.38 96.5902 22.6733 96.5902 23.02C96.5902 23.3667 96.4702 23.66 96.2302 23.9C96.0035 24.14 95.7235 24.26 95.3902 24.26ZM96.2702 26.04V37H94.4502V26.04H96.2702ZM101.192 28.06C101.552 27.4333 102.085 26.9133 102.792 26.5C103.512 26.0733 104.345 25.86 105.292 25.86C106.265 25.86 107.145 26.0933 107.932 26.56C108.732 27.0267 109.359 27.6867 109.812 28.54C110.265 29.38 110.492 30.36 110.492 31.48C110.492 32.5867 110.265 33.5733 109.812 34.44C109.359 35.3067 108.732 35.98 107.932 36.46C107.145 36.94 106.265 37.18 105.292 37.18C104.359 37.18 103.532 36.9733 102.812 36.56C102.105 36.1333 101.565 35.6067 101.192 34.98V42.2H99.372V26.04H101.192V28.06ZM108.632 31.48C108.632 30.6533 108.465 29.9333 108.132 29.32C107.799 28.7067 107.345 28.24 106.772 27.92C106.212 27.6 105.592 27.44 104.912 27.44C104.245 27.44 103.625 27.6067 103.052 27.94C102.492 28.26 102.039 28.7333 101.692 29.36C101.359 29.9733 101.192 30.6867 101.192 31.5C101.192 32.3267 101.359 33.0533 101.692 33.68C102.039 34.2933 102.492 34.7667 103.052 35.1C103.625 35.42 104.245 35.58 104.912 35.58C105.592 35.58 106.212 35.42 106.772 35.1C107.345 34.7667 107.799 34.2933 108.132 33.68C108.465 33.0533 108.632 32.32 108.632 31.48ZM115.108 27.54V34C115.108 34.5333 115.221 34.9133 115.448 35.14C115.674 35.3533 116.068 35.46 116.628 35.46H117.968V37H116.328C115.314 37 114.554 36.7667 114.048 36.3C113.541 35.8333 113.288 35.0667 113.288 34V27.54H111.868V26.04H113.288V23.28H115.108V26.04H117.968V27.54H115.108ZM130.173 31.1C130.173 31.4467 130.153 31.8133 130.113 32.2H121.353C121.419 33.28 121.786 34.1267 122.453 34.74C123.133 35.34 123.953 35.64 124.913 35.64C125.699 35.64 126.353 35.46 126.873 35.1C127.406 34.7267 127.779 34.2333 127.993 33.62H129.953C129.659 34.6733 129.073 35.5333 128.193 36.2C127.313 36.8533 126.219 37.18 124.913 37.18C123.873 37.18 122.939 36.9467 122.113 36.48C121.299 36.0133 120.659 35.3533 120.193 34.5C119.726 33.6333 119.493 32.6333 119.493 31.5C119.493 30.3667 119.719 29.3733 120.173 28.52C120.626 27.6667 121.259 27.0133 122.073 26.56C122.899 26.0933 123.846 25.86 124.913 25.86C125.953 25.86 126.873 26.0867 127.673 26.54C128.473 26.9933 129.086 27.62 129.513 28.42C129.953 29.2067 130.173 30.1 130.173 31.1ZM128.293 30.72C128.293 30.0267 128.139 29.4333 127.833 28.94C127.526 28.4333 127.106 28.0533 126.573 27.8C126.053 27.5333 125.473 27.4 124.833 27.4C123.913 27.4 123.126 27.6933 122.473 28.28C121.833 28.8667 121.466 29.68 121.373 30.72H128.293ZM131.895 31.5C131.895 30.3667 132.122 29.38 132.575 28.54C133.028 27.6867 133.655 27.0267 134.455 26.56C135.268 26.0933 136.195 25.86 137.235 25.86C138.582 25.86 139.688 26.1867 140.555 26.84C141.435 27.4933 142.015 28.4 142.295 29.56H140.335C140.148 28.8933 139.782 28.3667 139.235 27.98C138.702 27.5933 138.035 27.4 137.235 27.4C136.195 27.4 135.355 27.76 134.715 28.48C134.075 29.1867 133.755 30.1933 133.755 31.5C133.755 32.82 134.075 33.84 134.715 34.56C135.355 35.28 136.195 35.64 137.235 35.64C138.035 35.64 138.702 35.4533 139.235 35.08C139.768 34.7067 140.135 34.1733 140.335 33.48H142.295C142.002 34.6 141.415 35.5 140.535 36.18C139.655 36.8467 138.555 37.18 137.235 37.18C136.195 37.18 135.268 36.9467 134.455 36.48C133.655 36.0133 133.028 35.3533 132.575 34.5C132.122 33.6467 131.895 32.6467 131.895 31.5ZM150.164 25.84C150.99 25.84 151.737 26.02 152.404 26.38C153.07 26.7267 153.59 27.2533 153.964 27.96C154.35 28.6667 154.544 29.5267 154.544 30.54V37H152.744V30.8C152.744 29.7067 152.47 28.8733 151.924 28.3C151.377 27.7133 150.63 27.42 149.684 27.42C148.724 27.42 147.957 27.72 147.384 28.32C146.824 28.92 146.544 29.7933 146.544 30.94V37H144.724V22.2H146.544V27.6C146.904 27.04 147.397 26.6067 148.024 26.3C148.664 25.9933 149.377 25.84 150.164 25.84Z" fill="#FF9900"/>
</svg>
